<svg height="80" width="80" xmlns="http://www.w3.org/2000/svg"><defs><style>.cls-1,.cls-5{fill:none}.cls-1{stroke:#ff9151}.cls-1,.cls-4,.cls-5{stroke-miterlimit:10;stroke-width:2px}.cls-4{fill:#fff}.cls-4,.cls-5{stroke:#98a8b0}</style></defs><g data-name="Layer 1" id="Layer_1"><path d="M53 44V4M33 24h40M38.86 38.14L67.14 9.86M38.86 9.86l28.28 28.28" class="cls-1"></path><circle fill="#fff" r="15" cy="24" cx="53"></circle><circle stroke="#ff9151" stroke-width="2" stroke-miterlimit="10" fill="#fff" r="12" cy="24" cx="53"></circle><path d="M58.93 60a16.15 16.15 0 000-32.31 15.94 15.94 0 00-10.07 3.58A22.39 22.39 0 1026.8 60M45.39 35.15a16 16 0 0113.54-7.46" class="cls-4"></path><path d="M54.73 67.11L55.82 70M49.82 54l4.09 10.92M46.93 70.3l2.05 5.46M41.95 57.03l3.96 10.56M38.12 68.95l.9 2.41M32 52.63l5.11 13.63" class="cls-5"></path></g></svg>
